<svg width="27" height="27" viewBox="0 0 27 27" fill="none" xmlns="http://www.w3.org/2000/svg">
<g id="User 1">
<g id="Group">
<path id="Vector" d="M13.5008 3.37512C10.7626 3.37512 8.54297 5.57675 8.54297 8.2925C8.54297 11.0094 10.7626 13.211 13.5008 13.211C16.2391 13.211 18.4587 11.0094 18.4587 8.2925C18.4587 5.57675 16.2391 3.37512 13.5008 3.37512Z" fill="#B3B3B3"/>
<path id="Vector_2" d="M16.4261 15.3991C14.4874 15.0922 12.5126 15.0922 10.5739 15.3991L10.3657 15.4317C7.63425 15.8626 5.625 18.2004 5.625 20.9442C5.62647 21.2978 5.69757 21.6476 5.83422 21.9736C5.97088 22.2997 6.17042 22.5956 6.42145 22.8446C6.67249 23.0935 6.97009 23.2906 7.29728 23.4245C7.62447 23.5584 7.97484 23.6266 8.32837 23.6251H18.6716C19.0252 23.6266 19.3755 23.5584 19.7027 23.4245C20.0299 23.2906 20.3275 23.0935 20.5785 22.8446C20.8296 22.5956 21.0291 22.2997 21.1658 21.9736C21.3024 21.6476 21.3735 21.2978 21.375 20.9442C21.375 18.2004 19.3646 15.8637 16.6343 15.4317L16.4261 15.398V15.3991Z" fill="#B3B3B3"/>
</g>
</g>
</svg>
