<svg width="21" height="20" viewBox="0 0 21 20" fill="none" xmlns="http://www.w3.org/2000/svg">
<g id="Group">
<path id="Vector" d="M3.03168 15.6846C2.48482 11.1836 4.34413 6.45538 7.81036 3.52759C11.2766 0.599808 16.2488 -0.443402 20.5984 0.843813C17.4266 8.55869 12.4965 15.4154 3.03168 15.6846Z" fill="#00B307"/>
<g id="Group_2">
<path id="Vector_2" d="M0.818856 19.311C0.77679 19.2857 1.12173 18.4107 1.87051 17.0731C2.61928 15.7438 3.79715 13.977 5.36201 12.2355C6.92687 10.4939 8.55058 9.131 9.78732 8.2392C11.0325 7.34741 11.8654 6.90992 11.8906 6.95199C11.9243 7.01088 11.1503 7.54092 9.97244 8.48319C8.78617 9.42547 7.22129 10.8052 5.68167 12.5215C4.14205 14.2378 2.93898 15.9457 2.13132 17.2245C1.33206 18.5117 0.886162 19.3362 0.818856 19.311Z" fill="#1A1A1A"/>
</g>
</g>
</svg>
