<svg width="187" height="229" viewBox="0 0 187 229" fill="none" xmlns="http://www.w3.org/2000/svg">
<g id="Group">
<g id="Group_2">
<path id="Vector" d="M132.284 145.665L160.3 142.922L163.202 172.612L135.186 175.355L140.016 224.69L103.166 228.291L98.3367 178.956L3.15839 188.261L0.0371094 165.781L80.2568 6.69578L118.326 2.96875L132.284 145.665ZM35.8857 155.096L95.4257 149.274L86.6255 59.2782L85.6833 59.0678L83.2771 65.9162L35.8857 155.096Z" fill="#00B307"/>
</g>
<g id="Group_3" opacity="0.4">
<path id="Vector_2" opacity="0.4" d="M132.284 145.665L160.3 142.922L163.202 172.612L135.186 175.355L140.016 224.69L103.166 228.291L98.3367 178.956L3.15839 188.261L0.0371094 165.781L80.2568 6.69578L118.326 2.96875L132.284 145.665ZM35.8857 155.096L95.4257 149.274L86.6255 59.2782L85.6833 59.0678L83.2771 65.9162L35.8857 155.096Z" fill="#1A1A1A"/>
</g>
<g id="Group_4">
<path id="Vector_3" d="M155.714 143.377L183.73 140.634L186.633 170.324L158.617 173.067L163.446 222.402L126.597 226.003L121.767 176.668L26.5891 185.973L23.4678 163.493L103.687 4.40808L141.757 0.689453L155.714 143.377ZM59.3247 152.8L118.865 146.978L110.065 56.9821L109.122 56.7633L106.716 63.6116L59.3247 152.8Z" fill="#00B307"/>
</g>
<g id="Group_5">
<g id="Group_6">
<path id="Vector_4" d="M24.5447 167.708C24.5615 167.733 24.267 167.96 23.7118 168.339C23.1649 168.726 22.3572 169.264 21.3561 169.92C19.3537 171.233 16.5521 172.999 13.4224 174.884C10.2843 176.769 7.41542 178.409 5.31212 179.562C4.26047 180.142 3.41074 180.597 2.8134 180.899C2.21607 181.202 1.87954 181.362 1.86271 181.337C1.84588 181.312 2.15717 181.101 2.72927 180.756C3.37708 180.369 4.19317 179.881 5.16069 179.301C7.29764 178.031 10.0992 176.365 13.1953 174.514C16.2745 172.646 19.0677 170.955 21.1962 169.668C22.1637 169.087 22.9714 168.599 23.6276 168.204C24.2082 167.851 24.5363 167.682 24.5447 167.708Z" fill="#00B307"/>
</g>
<g id="Group_7">
<path id="Vector_5" d="M34.5564 140.836C34.5732 140.861 34.161 141.164 33.3954 141.677C32.6298 142.19 31.5192 142.922 30.1311 143.814C27.3547 145.589 23.4847 147.987 19.1771 150.578C14.8612 153.169 10.9322 155.458 8.06332 157.082C6.62467 157.889 5.45522 158.537 4.64755 158.966C3.83148 159.395 3.37717 159.622 3.36034 159.597C3.34351 159.572 3.7726 159.294 4.56344 158.823C5.42159 158.31 6.54893 157.637 7.91187 156.821C10.7976 155.096 14.6761 152.774 18.9584 150.216C23.2323 147.642 27.0939 145.303 29.9796 143.57C31.3426 142.746 32.4699 142.072 33.3197 141.551C34.0937 141.063 34.5395 140.81 34.5564 140.836Z" fill="#00B307"/>
</g>
<g id="Group_8">
<path id="Vector_6" d="M47.9502 116.244C47.967 116.269 47.5295 116.572 46.7303 117.094C45.931 117.615 44.7616 118.356 43.3061 119.256C40.3952 121.048 36.34 123.471 31.839 126.096C27.3295 128.712 23.2154 131.034 20.2119 132.666C18.7144 133.483 17.4861 134.13 16.6363 134.568C15.7866 135.005 15.3071 135.232 15.2902 135.207C15.2734 135.182 15.7277 134.904 16.5522 134.425C17.444 133.912 18.6219 133.23 20.0521 132.397C23.0724 130.656 27.1276 128.308 31.6118 125.717C36.0876 123.109 40.1343 120.753 43.1463 118.995C44.5765 118.162 45.7544 117.472 46.6378 116.959C47.4707 116.471 47.9334 116.219 47.9502 116.244Z" fill="#00B307"/>
</g>
<g id="Group_9">
<path id="Vector_7" d="M117.897 132.514C117.914 132.539 117.611 132.758 117.064 133.128C116.509 133.499 115.701 134.029 114.692 134.668C112.673 135.947 109.863 137.663 106.716 139.497C103.57 141.323 100.676 142.913 98.5722 144.032C97.5206 144.587 96.6624 145.033 96.0651 145.327C95.4678 145.622 95.1312 145.773 95.1144 145.748C95.0976 145.723 95.4089 145.521 95.9809 145.176C96.6372 144.797 97.4533 144.318 98.4208 143.763C100.566 142.526 103.385 140.911 106.497 139.119C109.593 137.301 112.395 135.661 114.532 134.407C115.5 133.843 116.316 133.372 116.972 132.985C117.552 132.657 117.88 132.489 117.897 132.514Z" fill="#00B307"/>
</g>
<g id="Group_10">
<path id="Vector_8" d="M121.7 178.653C121.717 178.678 121.431 178.897 120.892 179.267C120.362 179.637 119.58 180.159 118.604 180.79C116.661 182.06 113.935 183.76 110.889 185.577C107.844 187.394 105.042 188.967 103.006 190.078C101.988 190.633 101.155 191.071 100.575 191.365C99.994 191.66 99.6659 191.811 99.6491 191.777C99.6323 191.752 99.9352 191.55 100.49 191.214C101.13 190.835 101.921 190.364 102.855 189.809C104.941 188.58 107.658 186.982 110.67 185.207C113.665 183.406 116.366 181.783 118.444 180.537C119.378 179.982 120.169 179.511 120.808 179.132C121.364 178.796 121.683 178.628 121.7 178.653Z" fill="#00B307"/>
</g>
<g id="Group_11">
<path id="Vector_9" d="M123.593 194.747C123.61 194.772 123.324 194.991 122.785 195.361C122.255 195.731 121.473 196.253 120.497 196.884C118.554 198.154 115.828 199.853 112.782 201.671C109.737 203.488 106.935 205.061 104.899 206.172C103.881 206.727 103.048 207.164 102.468 207.459C101.887 207.753 101.559 207.905 101.542 207.871C101.525 207.838 101.828 207.644 102.383 207.307C103.023 206.929 103.814 206.458 104.748 205.902C106.834 204.674 109.551 203.076 112.563 201.3C115.559 199.5 118.259 197.876 120.337 196.631C121.271 196.076 122.062 195.605 122.701 195.226C123.257 194.89 123.576 194.721 123.593 194.747Z" fill="#00B307"/>
</g>
<g id="Group_12">
<path id="Vector_10" d="M125.486 210.84C125.503 210.866 125.217 211.084 124.678 211.455C124.148 211.825 123.366 212.346 122.39 212.977C120.446 214.248 117.721 215.947 114.675 217.764C111.629 219.582 108.828 221.155 106.792 222.265C105.774 222.821 104.941 223.258 104.36 223.553C103.78 223.847 103.452 223.999 103.435 223.965C103.418 223.94 103.721 223.738 104.276 223.401C104.916 223.023 105.707 222.551 106.64 221.996C108.727 220.768 111.444 219.169 114.456 217.394C117.451 215.594 120.152 213.97 122.23 212.725C123.164 212.17 123.955 211.699 124.594 211.32C125.149 210.983 125.469 210.815 125.486 210.84Z" fill="#00B307"/>
</g>
<g id="Group_13">
<path id="Vector_11" d="M115.92 115.502C115.937 115.528 115.634 115.746 115.087 116.117C114.532 116.487 113.724 117.017 112.715 117.656C110.696 118.935 107.886 120.651 104.739 122.485C101.593 124.311 98.6985 125.901 96.5952 127.02C95.5436 127.575 94.6854 128.021 94.0881 128.316C93.4907 128.61 93.1542 128.762 93.1374 128.736C93.1205 128.711 93.4319 128.509 94.004 128.164C94.6602 127.786 95.4762 127.306 96.4437 126.751C98.5891 125.514 101.408 123.899 104.52 122.107C107.617 120.289 110.418 118.649 112.555 117.395C113.523 116.832 114.339 116.361 114.995 115.974C115.575 115.654 115.903 115.477 115.92 115.502Z" fill="#00B307"/>
</g>
<g id="Group_14">
<path id="Vector_12" d="M113.943 98.5005C113.96 98.5258 113.657 98.7445 113.11 99.1147C112.555 99.4849 111.747 100.015 110.738 100.654C108.718 101.933 105.908 103.649 102.762 105.483C99.6153 107.309 96.7212 108.899 94.6179 110.018C93.5662 110.573 92.7081 111.019 92.1108 111.314C91.5134 111.608 91.1769 111.76 91.1601 111.734C91.1432 111.709 91.4545 111.507 92.0266 111.162C92.6828 110.784 93.4989 110.313 94.4664 109.749C96.6118 108.512 99.4302 106.897 102.543 105.105C105.639 103.288 108.441 101.647 110.578 100.393C111.545 99.8298 112.361 99.3587 113.018 98.9717C113.606 98.6435 113.935 98.4753 113.943 98.5005Z" fill="#00B307"/>
</g>
<g id="Group_15">
<path id="Vector_13" d="M111.975 81.4967C111.991 81.522 111.705 81.7323 111.184 82.0857C110.654 82.439 109.888 82.9438 108.929 83.558C107.011 84.7779 104.335 86.4184 101.34 88.16C98.3367 89.9015 95.5856 91.4074 93.5749 92.4675C92.5653 92.9975 91.7492 93.4182 91.1771 93.6958C90.605 93.9735 90.2853 94.1165 90.2685 94.0913C90.2517 94.066 90.5461 93.8725 91.093 93.5444C91.724 93.1826 92.498 92.7283 93.4234 92.1899C95.4763 91.012 98.1601 89.4724 101.122 87.773C104.066 86.0483 106.725 84.4834 108.769 83.2803C109.686 82.7503 110.469 82.296 111.1 81.9258C111.646 81.6313 111.958 81.4715 111.975 81.4967Z" fill="#00B307"/>
</g>
<g id="Group_16">
<path id="Vector_14" d="M111.638 65.3847C111.697 65.4941 109.938 66.5542 107.717 67.7573C105.496 68.9603 103.645 69.8521 103.586 69.7428C103.528 69.6334 105.286 68.5733 107.507 67.3703C109.728 66.1756 111.579 65.2838 111.638 65.3847Z" fill="#00B307"/>
</g>
<g id="Group_17">
<path id="Vector_15" d="M61.1924 90.8357C61.2092 90.8609 60.7717 91.1638 59.9725 91.6854C59.1732 92.2071 58.0038 92.9474 56.5483 93.8476C53.6373 95.6396 49.5822 98.0626 45.0811 100.688C40.5717 103.304 36.4577 105.626 33.4541 107.258C31.9566 108.074 30.7283 108.722 29.8785 109.16C29.0288 109.597 28.5493 109.824 28.5324 109.799C28.5156 109.774 28.9699 109.496 29.7944 109.017C30.6862 108.503 31.8641 107.822 33.2943 106.989C36.3146 105.247 40.3698 102.9 44.854 100.309C49.3298 97.7009 53.3765 95.3452 56.3885 93.5868C57.8187 92.7539 58.9966 92.064 59.8799 91.5508C60.7128 91.0629 61.184 90.8105 61.1924 90.8357Z" fill="#00B307"/>
</g>
<g id="Group_18">
<path id="Vector_16" d="M74.4432 65.4275C74.46 65.4527 74.0225 65.7556 73.2232 66.2772C72.424 66.7989 71.2545 67.5392 69.7991 68.4394C66.8881 70.2314 62.8329 72.6544 58.3319 75.2793C53.8224 77.8958 49.7084 80.2179 46.7049 81.85C45.2073 82.6661 43.979 83.3139 43.1293 83.7514C42.2795 84.1889 41.8 84.4161 41.7832 84.3908C41.7663 84.3656 42.2207 84.0879 43.0451 83.6084C43.9369 83.0952 45.1148 82.4137 46.545 81.5808C49.5653 79.8393 53.6205 77.492 58.1048 74.9008C62.5806 72.2927 66.6273 69.937 69.6392 68.1786C71.0695 67.3457 72.2473 66.6558 73.1307 66.1426C73.9636 65.6547 74.4263 65.4023 74.4432 65.4275Z" fill="#00B307"/>
</g>
<g id="Group_19">
<path id="Vector_17" d="M86.4405 40.197C86.4573 40.2223 86.0198 40.5251 85.2206 41.0468C84.4213 41.5684 83.2519 42.3087 81.7964 43.209C78.8854 45.001 74.8303 47.424 70.3292 50.0489C65.8197 52.6654 61.7057 54.9874 58.7022 56.6196C57.2046 57.4357 55.9763 58.0835 55.1266 58.521C54.2768 58.9584 53.7973 59.1856 53.7805 59.1604C53.7637 59.1351 54.218 58.8575 55.0425 58.3779C55.9343 57.8647 57.1121 57.1833 58.5423 56.3504C61.5627 54.6088 65.6178 52.2615 70.102 49.6703C74.5778 47.0622 78.6246 44.7065 81.6365 42.9482C83.0668 42.1152 84.2446 41.4254 85.1364 40.9122C85.9525 40.4242 86.4236 40.1718 86.4405 40.197Z" fill="#00B307"/>
</g>
<g id="Group_20">
<path id="Vector_18" d="M99.178 15.7654C99.1948 15.7906 98.7573 16.0935 97.9581 16.6151C97.1588 17.1368 95.9894 17.8771 94.5339 18.7773C91.623 20.5693 87.5678 22.9923 83.0667 25.6172C78.5573 28.2337 74.4432 30.5558 71.4397 32.1879C69.9422 33.004 68.7138 33.6518 67.8641 34.0893C67.0144 34.5268 66.5349 34.754 66.518 34.7287C66.5012 34.7035 66.9555 34.4258 67.78 33.9463C68.6718 33.4331 69.8496 32.7516 71.2799 31.9187C74.3002 30.1772 78.3553 27.8299 82.8396 25.2387C87.3154 22.6306 91.3621 20.2749 94.3741 18.5165C95.8043 17.6836 96.9821 16.9937 97.8655 16.4805C98.6984 15.9926 99.1611 15.7402 99.178 15.7654Z" fill="#00B307"/>
</g>
<g id="Group_21">
<path id="Vector_19" d="M146.157 43.6546C146.166 43.663 146.031 43.8733 145.745 44.2687C145.467 44.6641 145.055 45.2531 144.441 45.9429C143.255 47.3395 141.336 49.2493 138.56 51.0413C135.792 52.8249 132.116 54.4487 127.791 55.1638C125.629 55.5171 123.315 55.6013 120.951 55.3657C118.579 55.147 116.173 54.5412 113.783 53.7924C108.996 52.2444 104.647 50.2337 100.499 48.9969C96.3764 47.7097 92.4306 47.3479 89.1832 47.7013C85.9272 48.0462 83.4537 49.14 81.9394 50.1495C81.1906 50.6627 80.6269 51.1002 80.282 51.4368C79.9286 51.7565 79.7267 51.9247 79.7183 51.9163C79.7099 51.9079 79.8781 51.7228 80.2231 51.3779C80.5512 51.0161 81.0981 50.5534 81.8468 50.0065C83.3528 48.9465 85.8515 47.777 89.1495 47.39C92.4306 46.9946 96.4353 47.3311 100.617 48.6099C104.806 49.8382 109.164 51.8406 113.918 53.3718C116.299 54.1206 118.663 54.7179 121.002 54.9366C123.332 55.1806 125.612 55.0965 127.741 54.7684C132.006 54.0869 135.641 52.522 138.4 50.7889C141.168 49.0474 143.095 47.1965 144.323 45.842C144.954 45.1773 145.383 44.6052 145.678 44.2266C145.981 43.8396 146.149 43.6461 146.157 43.6546Z" fill="white"/>
</g>
<g id="Group_22">
<path id="Vector_20" d="M128.708 4.12104C128.725 4.14628 128.38 4.41551 127.741 4.88664C127.101 5.36619 126.142 5.99718 124.922 6.72913C123.702 7.46949 122.205 8.26032 120.497 9.05957C118.781 9.83358 116.854 10.5992 114.776 11.2554C112.698 11.8948 110.679 12.366 108.819 12.7025C106.96 13.0222 105.278 13.2241 103.856 13.3082C102.434 13.4008 101.281 13.426 100.49 13.3924C99.6912 13.3755 99.2537 13.3503 99.2537 13.3167C99.2537 13.283 99.6912 13.2578 100.482 13.2241C101.273 13.1989 102.417 13.1316 103.83 12.9969C105.244 12.8707 106.91 12.6436 108.744 12.3071C110.578 11.9453 112.58 11.4742 114.641 10.8348C116.694 10.1869 118.612 9.43818 120.329 8.6894C122.028 7.9238 123.534 7.1582 124.762 6.4599C125.991 5.77002 126.975 5.17269 127.64 4.74362C128.313 4.32296 128.691 4.0958 128.708 4.12104Z" fill="white"/>
</g>
<g id="Group_23">
<path id="Vector_21" d="M82.7133 105.028C82.6881 105.053 82.3852 104.784 81.8467 104.296C81.241 103.749 80.467 103.059 79.5415 102.235C77.5813 100.519 74.7965 98.2134 71.5322 95.9334C69.9 94.7977 68.2678 93.8386 66.6862 93.1907C65.1045 92.5429 63.5817 92.2317 62.2945 92.1643C59.6864 92.0213 58.1804 92.8206 58.1636 92.7196C58.1552 92.7028 58.2478 92.6523 58.4245 92.5682C58.6011 92.484 58.8619 92.3747 59.2153 92.2653C59.9136 92.0381 60.9821 91.8194 62.3114 91.8531C63.6322 91.8783 65.2139 92.1643 66.846 92.8122C68.4782 93.4516 70.1524 94.4191 71.793 95.5633C75.0825 97.8516 77.8421 100.207 79.7603 101.991C80.7194 102.883 81.4682 103.632 81.9729 104.162C82.4693 104.7 82.7386 105.003 82.7133 105.028Z" fill="white"/>
</g>
<g id="Group_24">
<path id="Vector_22" d="M152.728 120.761C152.736 120.77 152.635 120.871 152.442 121.056C152.24 121.232 151.954 121.518 151.542 121.83C150.742 122.486 149.523 123.352 147.899 124.244C144.693 126.028 139.645 127.702 133.958 127.366C128.271 127.021 123.467 124.732 120.497 122.578C118.991 121.502 117.889 120.492 117.174 119.743C116.804 119.381 116.56 119.062 116.375 118.868C116.198 118.658 116.114 118.549 116.122 118.54C116.147 118.515 116.543 118.927 117.292 119.625C118.032 120.332 119.159 121.3 120.674 122.326C123.652 124.396 128.397 126.592 133.983 126.928C139.57 127.265 144.542 125.666 147.756 123.975C149.379 123.134 150.616 122.309 151.441 121.703C152.265 121.089 152.711 120.728 152.728 120.761Z" fill="white"/>
</g>
<g id="Group_25">
<path id="Vector_23" d="M184.496 170.046C184.496 170.046 184.387 169.928 184.202 169.692C184.008 169.44 183.73 169.087 183.377 168.632C182.696 167.673 181.518 166.386 179.928 164.813C179.507 164.442 179.069 164.047 178.607 163.635C178.371 163.433 178.136 163.214 177.892 163.004C177.631 162.81 177.362 162.617 177.092 162.406C176.546 162.003 175.973 161.582 175.385 161.144C174.754 160.757 174.106 160.354 173.424 159.941C170.69 158.343 167.375 156.82 163.505 155.802C159.643 154.793 155.235 154.254 150.557 154.675C145.879 155.062 140.975 156.492 136.373 159.066C131.771 161.675 127.48 165.242 122.895 168.742C120.598 170.492 118.209 172.225 115.626 173.731C113.043 175.237 110.241 176.507 107.246 177.256C104.259 178.038 101.172 178.19 98.1851 177.988C95.19 177.786 92.2875 177.146 89.5111 176.339C83.9416 174.698 78.9189 172.208 74.2076 169.776C69.4962 167.345 65.0456 164.981 60.6876 163.206C56.338 161.431 52.0894 160.202 48.1183 159.824C44.1389 159.453 40.496 159.815 37.4336 160.631C34.3544 161.414 31.8809 162.676 30.0552 163.946C28.1959 165.2 27.0685 166.546 26.2777 167.412C25.9328 167.875 25.6635 168.228 25.4784 168.489C25.2933 168.733 25.1924 168.851 25.1924 168.851C25.1924 168.851 25.2681 168.716 25.4448 168.464C25.6299 168.203 25.8823 167.833 26.2188 167.362C26.9928 166.478 28.1118 165.099 29.9711 163.811C31.7967 162.499 34.2871 161.203 37.3831 160.396C40.4707 159.554 44.1473 159.167 48.1604 159.521C52.1819 159.883 56.4642 161.102 60.8391 162.869C65.2223 164.636 69.6981 166.992 74.4095 169.415C79.1209 171.829 84.1267 174.303 89.6458 175.926C92.3969 176.726 95.2742 177.357 98.2272 177.559C101.172 177.752 104.209 177.601 107.154 176.835C110.098 176.103 112.858 174.85 115.424 173.36C117.99 171.871 120.362 170.155 122.659 168.405C127.236 164.914 131.552 161.346 136.196 158.713C137.365 158.082 138.526 157.46 139.738 156.988C140.335 156.744 140.924 156.467 141.521 156.248C142.136 156.054 142.741 155.869 143.339 155.676C145.753 154.919 148.185 154.549 150.54 154.313C155.269 153.909 159.711 154.473 163.598 155.508C167.493 156.559 170.816 158.107 173.559 159.731C174.232 160.152 174.888 160.564 175.519 160.959C176.108 161.405 176.68 161.834 177.227 162.247C177.496 162.449 177.765 162.65 178.026 162.852C178.27 163.071 178.506 163.29 178.741 163.492C179.204 163.912 179.642 164.308 180.062 164.686C181.644 166.285 182.797 167.597 183.461 168.573C183.798 169.036 184.067 169.398 184.252 169.659C184.412 169.919 184.496 170.046 184.496 170.046Z" fill="white"/>
</g>
<g id="Group_26">
<path id="Vector_24" d="M164.254 208.42C164.262 208.436 164.119 208.495 163.85 208.588C163.531 208.697 163.135 208.832 162.656 209C162.134 209.185 161.495 209.387 160.737 209.564C159.98 209.749 159.122 210.001 158.154 210.161C157.667 210.254 157.162 210.346 156.64 210.447C156.11 210.54 155.555 210.59 154.983 210.666C153.839 210.834 152.602 210.893 151.298 210.977C148.698 211.061 145.829 210.96 142.851 210.548C139.873 210.102 137.096 209.396 134.623 208.588C133.403 208.142 132.225 207.747 131.173 207.259C130.643 207.023 130.122 206.821 129.642 206.577C129.163 206.333 128.708 206.098 128.262 205.879C127.371 205.458 126.622 204.97 125.949 204.583C125.267 204.196 124.712 203.826 124.266 203.506C123.854 203.212 123.509 202.976 123.231 202.774C122.996 202.606 122.878 202.505 122.886 202.497C122.895 202.488 123.029 202.556 123.282 202.699C123.568 202.875 123.921 203.094 124.359 203.355C124.821 203.649 125.385 204.003 126.075 204.365C126.756 204.735 127.514 205.197 128.405 205.601C128.843 205.812 129.306 206.039 129.785 206.266C130.265 206.493 130.786 206.687 131.316 206.914C132.368 207.385 133.529 207.763 134.749 208.193C137.206 208.975 139.965 209.665 142.918 210.102C145.871 210.506 148.706 210.624 151.289 210.565C152.577 210.498 153.805 210.456 154.941 210.296C155.513 210.228 156.068 210.186 156.59 210.102C157.111 210.018 157.616 209.926 158.104 209.85C159.072 209.715 159.93 209.48 160.687 209.32C161.452 209.168 162.092 208.983 162.622 208.832C163.11 208.697 163.514 208.588 163.842 208.504C164.103 208.436 164.254 208.403 164.254 208.42Z" fill="white"/>
</g>
</g>
</g>
</svg>
