<svg width="172" height="230" viewBox="0 0 172 230" fill="none" xmlns="http://www.w3.org/2000/svg">
<g id="Group">
<g id="Group_2">
<path id="Vector" d="M147.934 139.762C148.211 168.729 141.893 190.872 128.987 206.201C116.073 221.53 98.3969 229.295 75.959 229.506C53.4116 229.724 35.4916 222.296 22.1904 207.219C8.88912 192.151 2.09969 170.134 1.81364 141.159L1.32566 90.2087C1.04802 61.3431 7.36634 39.1996 20.2722 23.7698C33.178 8.34844 50.9045 0.524186 73.4519 0.305443C95.8898 0.0867003 113.768 7.56601 127.069 22.7434C140.37 37.9208 147.168 59.9381 147.446 88.8037L147.934 139.762ZM110.217 83.4613C110.041 65.2215 106.852 51.7436 100.652 43.0444C94.4511 34.3368 85.4827 30.046 73.7547 30.1554C62.0267 30.2648 53.1677 34.7322 47.1859 43.5576C41.2041 52.383 38.2932 65.9114 38.4698 84.1512L39.0672 146.055C39.2439 164.405 42.4577 177.95 48.7171 186.708C54.9681 195.466 63.9618 199.782 75.6982 199.673C87.4261 199.563 96.26 195.096 102.191 186.27C108.123 177.445 111 163.816 110.823 145.365L110.217 83.4613Z" fill="#00B307"/>
</g>
<g id="Group_3" opacity="0.4">
<path id="Vector_2" opacity="0.4" d="M147.934 139.762C148.211 168.729 141.893 190.872 128.987 206.201C116.073 221.53 98.3969 229.295 75.959 229.506C53.4116 229.724 35.4916 222.296 22.1904 207.219C8.88912 192.151 2.09969 170.134 1.81364 141.159L1.32566 90.2087C1.04802 61.3431 7.36634 39.1996 20.2722 23.7698C33.178 8.34844 50.9045 0.524186 73.4519 0.305443C95.8898 0.0867003 113.768 7.56601 127.069 22.7434C140.37 37.9208 147.168 59.9381 147.446 88.8037L147.934 139.762ZM110.217 83.4613C110.041 65.2215 106.852 51.7436 100.652 43.0444C94.4511 34.3368 85.4827 30.046 73.7547 30.1554C62.0267 30.2648 53.1677 34.7322 47.1859 43.5576C41.2041 52.383 38.2932 65.9114 38.4698 84.1512L39.0672 146.055C39.2439 164.405 42.4577 177.95 48.7171 186.708C54.9681 195.466 63.9618 199.782 75.6982 199.673C87.4261 199.563 96.26 195.096 102.191 186.27C108.123 177.445 111 163.816 110.823 145.365L110.217 83.4613Z" fill="#1A1A1A"/>
</g>
<g id="Group_4">
<path id="Vector_3" d="M169.354 139.561C169.631 168.528 163.313 190.671 150.407 206C137.493 221.329 119.817 229.094 97.3789 229.305C74.8316 229.523 56.9115 222.094 43.6103 207.018C30.309 191.95 23.5196 169.933 23.2336 140.958L22.7456 90.0075C22.4679 61.1419 28.7863 38.9984 41.6921 23.5686C54.5979 8.14727 72.3245 0.323014 94.8718 0.104271C117.31 -0.114472 135.188 7.36484 148.489 22.5422C161.79 37.7196 168.588 59.7369 168.866 88.6025L169.354 139.561ZM131.637 83.2601C131.461 65.0204 128.272 51.5425 122.072 42.8432C115.871 34.1356 106.903 29.8449 95.1747 29.9542C83.4467 30.0636 74.5876 34.531 68.6058 43.3564C62.6241 52.1819 59.7131 65.7103 59.8898 83.95L60.4871 145.854C60.6638 164.203 63.8776 177.749 70.137 186.507C76.388 195.265 85.3817 199.581 97.1181 199.471C108.846 199.362 117.68 194.895 123.611 186.069C129.542 177.244 132.42 163.614 132.243 145.164L131.637 83.2601Z" fill="#00B307"/>
</g>
<g id="Group_5">
<path id="Vector_4" d="M22.9053 93.0446C22.9474 93.1539 17.9752 95.131 11.7999 97.4531C5.61626 99.7751 0.576755 101.567 0.534689 101.449C0.492623 101.34 5.46483 99.3629 11.6485 97.0408C17.8238 94.7188 22.8633 92.9268 22.9053 93.0446Z" fill="#00B307"/>
</g>
<g id="Group_6">
<path id="Vector_5" d="M24.1421 113.177C24.1842 113.287 19.212 115.264 13.0368 117.586C6.85308 119.908 1.81357 121.7 1.77151 121.582C1.72944 121.473 6.70164 119.496 12.8853 117.174C19.0522 114.852 24.1001 113.06 24.1421 113.177Z" fill="#00B307"/>
</g>
<g id="Group_7">
<path id="Vector_6" d="M25.3789 133.31C25.421 133.42 20.4488 135.397 14.2736 137.719C8.08989 140.041 3.05039 141.833 3.00832 141.715C2.96626 141.606 7.93843 139.628 14.1221 137.306C20.289 134.984 25.3369 133.192 25.3789 133.31Z" fill="#00B307"/>
</g>
<g id="Group_8">
<path id="Vector_7" d="M26.6155 153.443C26.6576 153.552 21.6854 155.529 15.5102 157.852C9.32647 160.174 4.28696 161.966 4.24489 161.848C4.20283 161.738 9.17501 159.761 15.3587 157.439C21.5256 155.117 26.5735 153.325 26.6155 153.443Z" fill="#00B307"/>
</g>
<g id="Group_9">
<path id="Vector_8" d="M27.8524 173.576C27.8608 173.601 27.5916 173.736 27.0784 173.954C26.5736 174.173 25.8332 174.476 24.9246 174.838C23.0989 175.57 20.5582 176.546 17.7482 177.606C14.9382 178.666 12.3805 179.6 10.5212 180.247C9.59577 180.575 8.83859 180.836 8.31697 181.005C7.79536 181.173 7.5009 181.257 7.48408 181.223C7.47566 181.198 7.7449 181.063 8.2581 180.845C8.76289 180.626 9.50325 180.323 10.4119 179.961C12.2375 179.229 14.7783 178.253 17.5883 177.193C20.3983 176.133 22.9559 175.199 24.8068 174.552C25.7322 174.223 26.4894 173.963 27.011 173.794C27.5411 173.626 27.8355 173.542 27.8524 173.576Z" fill="#00B307"/>
</g>
<g id="Group_10">
<path id="Vector_9" d="M33.5985 191.993C33.6237 192.052 32.6478 192.473 31.0493 193.112C29.4592 193.752 27.2465 194.61 24.7899 195.535C22.3332 196.461 20.1037 197.268 18.4884 197.832C16.8646 198.396 15.8551 198.724 15.8298 198.665C15.8046 198.606 16.7805 198.185 18.379 197.546C19.9691 196.907 22.1818 196.048 24.6384 195.123C27.0866 194.198 29.3162 193.39 30.9399 192.826C32.5636 192.254 33.5816 191.934 33.5985 191.993Z" fill="#00B307"/>
</g>
<g id="Group_11">
<path id="Vector_10" d="M45.9071 208.887C45.9323 208.945 45.0657 209.324 43.6439 209.905C42.2305 210.477 40.2534 211.242 38.0744 212.067C35.8869 212.891 33.9014 213.606 32.4544 214.111C31.0073 214.616 30.1071 214.894 30.0818 214.835C30.0566 214.776 30.9232 214.397 32.345 213.817C33.7584 213.245 35.7355 212.479 37.9145 211.654C40.102 210.83 42.0875 210.115 43.5345 209.61C44.9816 209.114 45.8818 208.828 45.9071 208.887Z" fill="#00B307"/>
</g>
<g id="Group_12">
<path id="Vector_11" d="M66.3594 219.965C66.3847 220.024 65.5181 220.402 64.0963 220.983C62.6744 221.563 60.7058 222.321 58.5268 223.145C56.3393 223.969 54.3538 224.685 52.9067 225.189C51.4597 225.694 50.5595 225.972 50.5342 225.913C50.509 225.854 51.3755 225.475 52.7974 224.895C54.2108 224.323 56.1879 223.557 58.3669 222.733C60.5543 221.908 62.5398 221.193 63.9869 220.688C65.434 220.184 66.3342 219.906 66.3594 219.965Z" fill="#00B307"/>
</g>
<g id="Group_13">
<path id="Vector_12" d="M128.045 176.999C128.095 177.109 121.71 180.087 113.785 183.654C105.859 187.221 99.3896 190.014 99.3392 189.905C99.2887 189.796 105.674 186.817 113.6 183.25C121.533 179.691 127.994 176.89 128.045 176.999Z" fill="#00B307"/>
</g>
<g id="Group_14">
<path id="Vector_13" d="M132.235 159.754C132.285 159.863 127.01 162.345 120.465 165.29C113.911 168.234 108.56 170.531 108.509 170.422C108.459 170.312 113.734 167.83 120.288 164.886C126.833 161.941 132.184 159.644 132.235 159.754Z" fill="#00B307"/>
</g>
<g id="Group_15">
<path id="Vector_14" d="M134.161 140.377C134.212 140.487 128.937 142.969 122.391 145.913C115.837 148.858 110.487 151.155 110.436 151.045C110.386 150.936 115.661 148.454 122.215 145.509C128.76 142.565 134.111 140.26 134.161 140.377Z" fill="#00B307"/>
</g>
<g id="Group_16">
<path id="Vector_15" d="M136.088 120.994C136.138 121.103 130.863 123.585 124.318 126.53C117.764 129.474 112.413 131.771 112.363 131.662C112.312 131.553 117.587 129.071 124.141 126.126C130.687 123.181 136.037 120.885 136.088 120.994Z" fill="#00B307"/>
</g>
<g id="Group_17">
<path id="Vector_16" d="M138.023 101.619C138.073 101.728 132.798 104.21 126.253 107.155C119.699 110.099 114.348 112.396 114.298 112.287C114.247 112.178 119.522 109.696 126.076 106.751C132.613 103.806 137.972 101.51 138.023 101.619Z" fill="#00B307"/>
</g>
<g id="Group_18">
<path id="Vector_17" d="M134.161 84.3631C134.212 84.4725 128.937 86.9544 122.391 89.899C115.837 92.8436 110.487 95.1404 110.436 95.031C110.386 94.9217 115.661 92.4398 122.215 89.4952C128.76 86.5505 134.111 84.2538 134.161 84.3631Z" fill="#00B307"/>
</g>
<g id="Group_19">
<path id="Vector_18" d="M134.161 65.787C134.212 65.8963 128.937 68.3782 122.391 71.3228C115.837 74.2674 110.487 76.5642 110.436 76.4549C110.386 76.3455 115.661 73.8636 122.215 70.919C128.76 67.9744 134.111 65.6776 134.161 65.787Z" fill="#00B307"/>
</g>
<g id="Group_20">
<path id="Vector_19" d="M132.235 48.2948C132.285 48.4041 127.01 50.886 120.465 53.8306C113.911 56.7752 108.56 59.072 108.509 58.9627C108.459 58.8533 113.734 56.3714 120.288 53.4268C126.833 50.4822 132.184 48.1854 132.235 48.2948Z" fill="#00B307"/>
</g>
<g id="Group_21">
<path id="Vector_20" d="M115.619 36.1038C115.669 36.2132 112.481 37.7528 108.493 39.5448C104.505 41.3368 101.232 42.6997 101.19 42.5904C101.14 42.481 104.328 40.9414 108.316 39.1494C112.295 37.3574 115.568 35.9944 115.619 36.1038Z" fill="#00B307"/>
</g>
<g id="Group_22">
<path id="Vector_21" d="M106.734 28.6429C106.785 28.7522 103.596 30.2919 99.6084 32.0839C95.6206 33.8759 92.3478 35.2388 92.3058 35.1294C92.2553 35.0201 95.4439 33.4805 99.4317 31.6885C103.411 29.8964 106.684 28.5335 106.734 28.6429Z" fill="#00B307"/>
</g>
<g id="Group_23">
<path id="Vector_22" d="M23.856 68.6376C23.8981 68.747 18.9259 70.724 12.7506 73.0461C6.56694 75.3681 1.52744 77.1601 1.48537 77.0423C1.44331 76.9246 6.41548 74.9559 12.5992 72.6338C18.7744 70.3118 23.8139 68.5282 23.856 68.6376Z" fill="#00B307"/>
</g>
<g id="Group_24">
<path id="Vector_23" d="M30.0481 43.5344C30.0901 43.6437 24.6973 45.7807 18.0004 48.2962C11.3035 50.8117 5.84334 52.7636 5.80127 52.6458C5.7592 52.5364 11.1521 50.3995 17.849 47.884C24.5459 45.3684 30.006 43.4166 30.0481 43.5344Z" fill="#00B307"/>
</g>
<g id="Group_25">
<path id="Vector_24" d="M46.2266 18.6812C46.2687 18.7906 39.4287 21.466 30.9483 24.6546C22.4678 27.8432 15.5606 30.3335 15.5185 30.2157C15.4764 30.1063 22.3164 27.4309 30.7968 24.2423C39.2689 21.0621 46.1845 18.5718 46.2266 18.6812Z" fill="#00B307"/>
</g>
<g id="Group_26">
<path id="Vector_25" d="M165.728 177.277C165.728 177.286 165.601 177.243 165.374 177.159C165.13 177.067 164.794 176.932 164.365 176.764C163.919 176.596 163.338 176.478 162.665 176.284C161.975 176.192 161.185 175.998 160.284 175.998C156.692 175.763 151.307 177.075 146.1 180.971C143.458 182.855 140.993 185.438 138.587 188.399C136.172 191.352 133.808 194.692 131.124 198.066C128.44 201.423 125.353 204.83 121.432 207.464C117.537 210.105 112.935 212.015 108.022 212.899C103.1 213.807 98.1277 213.546 93.5594 212.419C88.9742 211.317 84.7928 209.516 80.8891 207.716C76.9854 205.907 73.3341 204.056 69.8342 202.542C66.3427 200.994 62.9606 199.875 59.8057 199.126C56.6423 198.403 53.7145 198.091 51.1401 198.125C48.5657 198.15 46.3698 198.546 44.6199 199.008C42.8868 199.538 41.5828 200.094 40.7414 200.531C40.3292 200.75 40.0179 200.918 39.7823 201.036C39.5636 201.145 39.4542 201.204 39.4458 201.196C39.4458 201.187 39.5468 201.12 39.7571 200.994C39.9842 200.859 40.304 200.683 40.6994 200.447C41.5323 199.976 42.8363 199.395 44.5694 198.84C46.3278 198.344 48.5405 197.923 51.1317 197.873C53.723 197.814 56.6844 198.108 59.873 198.815C63.0532 199.547 66.4689 200.657 69.9772 202.197C73.5024 203.703 77.1537 205.545 81.0574 207.337C84.9611 209.121 89.1172 210.905 93.6603 211.99C98.1782 213.1 103.083 213.353 107.946 212.461C112.8 211.586 117.343 209.702 121.197 207.102C125.075 204.511 128.138 201.145 130.821 197.805C133.505 194.457 135.878 191.125 138.318 188.164C140.749 185.202 143.256 182.603 145.931 180.718C151.206 176.814 156.675 175.536 160.301 175.822C161.218 175.838 162.009 176.04 162.707 176.15C163.38 176.352 163.961 176.495 164.407 176.671C164.836 176.856 165.164 176.999 165.408 177.109C165.618 177.218 165.736 177.277 165.728 177.277Z" fill="white"/>
</g>
<g id="Group_27">
<path id="Vector_26" d="M171.036 121.128C171.044 121.17 170.439 121.254 169.404 121.599C168.369 121.952 166.93 122.634 165.34 123.77C163.733 124.889 161.992 126.453 159.948 128.069C157.886 129.676 155.446 131.224 152.721 132.519C147.269 135.144 141.792 136.162 137.863 136.356C136.879 136.44 135.987 136.406 135.204 136.423C134.422 136.389 133.749 136.381 133.194 136.339C132.689 136.288 132.268 136.246 131.932 136.213C131.646 136.179 131.494 136.154 131.494 136.137C131.494 136.12 131.646 136.12 131.94 136.12C132.277 136.129 132.697 136.145 133.202 136.162C133.774 136.162 134.439 136.171 135.204 136.179C135.978 136.137 136.87 136.145 137.846 136.044C141.741 135.775 147.143 134.715 152.544 132.115C155.236 130.837 157.659 129.314 159.712 127.741C161.756 126.151 163.532 124.603 165.181 123.5C166.813 122.381 168.302 121.725 169.37 121.414C169.909 121.271 170.321 121.178 170.615 121.145C170.876 121.119 171.028 121.111 171.036 121.128Z" fill="white"/>
</g>
<g id="Group_28">
<path id="Vector_27" d="M61.1349 140.621C61.1349 140.637 60.9751 140.612 60.6722 140.553C60.3777 140.486 59.9234 140.419 59.3682 140.259C58.2492 139.931 56.6591 139.342 54.8587 138.282C53.0583 137.23 51.0728 135.732 48.9695 133.983C46.8578 132.241 44.603 130.239 42.0202 128.455C39.4289 126.68 36.6862 125.41 34.0361 124.795C31.3943 124.139 28.9293 123.996 26.8764 124.114C24.8236 124.215 23.1746 124.56 22.0641 124.846C20.9452 125.132 20.3394 125.351 20.3226 125.309C20.3142 125.292 20.4656 125.233 20.7517 125.115C21.0377 125.006 21.4584 124.837 22.0136 124.678C23.1242 124.341 24.7732 123.946 26.8512 123.794C28.9293 123.643 31.4364 123.744 34.1286 124.392C36.8293 124.997 39.6392 126.284 42.2642 128.085C44.8807 129.894 47.1354 131.913 49.2303 133.663C51.3167 135.43 53.2602 136.944 55.0185 138.012C56.7769 139.089 58.3249 139.72 59.4187 140.091C60.5208 140.427 61.1433 140.578 61.1349 140.621Z" fill="white"/>
</g>
<g id="Group_29">
<path id="Vector_28" d="M61.2864 61.0907C61.2948 61.1159 60.7984 61.301 59.8814 61.6039C59.4271 61.7637 58.8634 61.9404 58.1987 62.1002C57.5341 62.2685 56.7853 62.4872 55.944 62.6387C55.1027 62.8154 54.1772 63.0005 53.1677 63.1266C52.1665 63.2949 51.0896 63.3706 49.9538 63.4716C47.6823 63.6146 45.1667 63.6146 42.5502 63.379C39.9337 63.1182 37.4603 62.6471 35.256 62.0834C34.1623 61.7721 33.1106 61.4945 32.1599 61.1411C31.1924 60.8298 30.3175 60.4765 29.5266 60.1484C28.719 59.8455 28.0291 59.4837 27.4065 59.1977C26.7839 58.9116 26.2623 58.634 25.85 58.3984C25.0087 57.9273 24.5544 57.6581 24.5713 57.6328C24.5881 57.6076 25.0676 57.8263 25.9342 58.247C26.3633 58.4657 26.8849 58.7181 27.5159 58.9789C28.1384 59.2482 28.8367 59.5847 29.6444 59.8707C30.4437 60.182 31.3186 60.5186 32.2777 60.8046C33.2284 61.1411 34.2717 61.4019 35.357 61.6964C37.5528 62.2349 40.001 62.6892 42.5923 62.9416C45.192 63.1771 47.6739 63.1771 49.9286 63.0678C51.056 62.9752 52.1244 62.9163 53.1172 62.7649C54.1183 62.6555 55.0354 62.4872 55.8767 62.3358C56.7264 62.2012 57.4668 62.0077 58.1315 61.8563C58.7961 61.7216 59.3598 61.5618 59.8225 61.4356C60.7563 61.1916 61.278 61.0654 61.2864 61.0907Z" fill="white"/>
</g>
<g id="Group_30">
<path id="Vector_29" d="M166.258 60.8808C166.249 60.8892 166.123 60.8303 165.896 60.7125C165.627 60.5611 165.307 60.376 164.92 60.1489C164.508 59.8965 163.986 59.5936 163.355 59.2991C162.732 58.9963 162.043 58.6008 161.227 58.298C160.823 58.1297 160.402 57.953 159.965 57.7763C159.527 57.5997 159.048 57.4651 158.56 57.2968C157.6 56.9434 156.524 56.6995 155.413 56.405C153.158 55.917 150.643 55.5721 147.984 55.53C145.326 55.5216 142.802 55.8245 140.539 56.2704C139.42 56.5396 138.343 56.7668 137.375 57.1033C136.887 57.2631 136.408 57.3893 135.962 57.5576C135.524 57.7343 135.095 57.9025 134.691 58.0624C133.867 58.3569 133.177 58.7355 132.546 59.0299C131.915 59.316 131.393 59.602 130.973 59.8544C130.586 60.0731 130.258 60.2498 129.988 60.4012C129.761 60.519 129.635 60.5779 129.627 60.5695C129.618 60.5611 129.728 60.477 129.938 60.3255C130.199 60.1573 130.51 59.9553 130.889 59.703C131.301 59.4337 131.814 59.114 132.437 58.8028C133.059 58.4915 133.749 58.0876 134.574 57.7679C134.986 57.5997 135.407 57.423 135.852 57.2379C136.298 57.0528 136.778 56.9182 137.274 56.7499C138.25 56.3882 139.335 56.1526 140.463 55.8666C142.743 55.3954 145.3 55.0757 147.993 55.0841C150.685 55.1262 153.234 55.488 155.506 56.0012C156.633 56.304 157.71 56.5649 158.677 56.935C159.165 57.1117 159.645 57.2547 160.082 57.4482C160.52 57.6417 160.94 57.8268 161.344 58.0035C162.16 58.3316 162.85 58.7523 163.464 59.072C164.087 59.3917 164.592 59.7114 164.996 59.9974C165.366 60.2498 165.677 60.4601 165.929 60.6368C166.165 60.7798 166.266 60.864 166.258 60.8808Z" fill="white"/>
</g>
<g id="Group_31">
<path id="Vector_30" d="M114.819 3.73099C114.828 3.74782 114.618 3.86561 114.214 4.09276C113.768 4.33674 113.179 4.65644 112.43 5.06027C110.874 5.89318 108.619 7.07944 105.792 8.48444C100.155 11.2692 92.23 15.0804 82.8577 17.4529C78.1716 18.6055 73.5864 19.2281 69.4051 19.3206C65.2237 19.4131 61.4546 19.0346 58.3586 18.3699C55.2625 17.7137 52.8311 16.8808 51.2074 16.1825C50.3829 15.8628 49.7855 15.5263 49.3565 15.3412C48.9358 15.1393 48.7255 15.0215 48.7339 15.0131C48.7423 14.9962 48.9695 15.0888 49.3985 15.2655C49.836 15.4337 50.4418 15.745 51.2747 16.0311C52.9068 16.6789 55.3382 17.4613 58.4175 18.067C61.4967 18.6896 65.2405 19.0346 69.3967 18.9168C73.5444 18.799 78.0959 18.1764 82.7484 17.0238C92.0618 14.6681 99.9786 10.9158 105.649 8.19839C108.442 6.81863 110.722 5.69968 112.346 4.90043C113.112 4.53025 113.717 4.22737 114.172 4.00862C114.592 3.81512 114.819 3.72258 114.819 3.73099Z" fill="white"/>
</g>
</g>
</svg>
