<svg width="24" height="11" viewBox="0 0 24 11" fill="none" xmlns="http://www.w3.org/2000/svg">
<g id="Group">
<path id="Vector" d="M6.52588 6.94663C7.96453 3.81692 11.0017 1.47804 14.3922 0.889115C17.7828 0.300191 21.4341 1.48646 23.8402 3.95153C22.1997 6.87091 19.2551 8.81437 16.0917 9.89967C12.3731 11.1785 8.3263 9.67251 6.52588 6.94663Z" fill="#00B307"/>
<g id="Group_2">
<path id="Vector_2" d="M0.552474 8.32573C0.535647 8.27525 1.45268 7.93871 2.96705 7.56853C4.48983 7.19836 6.60153 6.77771 8.95722 6.39071C11.3045 6.00371 13.4498 5.70926 14.9979 5.53259C16.5459 5.3475 17.5134 5.28019 17.5218 5.33908C17.5302 5.39797 16.5796 5.58306 15.04 5.84387C13.3657 6.1215 11.3045 6.45801 9.02454 6.82818C6.67726 7.21518 4.55714 7.58537 3.02595 7.87142C1.50316 8.16587 0.5693 8.38462 0.552474 8.32573Z" fill="#1A1A1A"/>
</g>
</g>
</svg>
