<svg width="26" height="14" viewBox="0 0 26 14" fill="none" xmlns="http://www.w3.org/2000/svg">
<g id="Group">
<path id="Vector" d="M4.19019 10.8162C5.17453 6.38242 8.49773 2.546 12.738 0.939082C16.9782 -0.667837 22.0177 -0.00319245 25.6859 2.66379C20.1416 8.88114 13.2091 13.7103 4.19019 10.8162Z" fill="#00B307"/>
<g id="Group_2">
<path id="Vector_2" d="M0.900483 13.5008C0.86683 13.4671 1.48099 12.752 2.6336 11.7424C3.77779 10.7328 5.48567 9.46246 7.53007 8.3435C9.58289 7.22455 11.5684 6.47577 13.0323 6.04669C14.4962 5.61762 15.4385 5.48302 15.4469 5.5335C15.4637 5.60081 14.5551 5.84478 13.1248 6.34116C11.6946 6.83754 9.75957 7.61997 7.73199 8.72209C5.71283 9.83263 4.00495 11.0441 2.81869 11.978C1.64926 12.9203 0.950962 13.5513 0.900483 13.5008Z" fill="#1A1A1A"/>
</g>
</g>
</svg>
