<svg width="187" height="226" viewBox="0 0 187 226" fill="none" xmlns="http://www.w3.org/2000/svg">
<g id="Group">
<g id="Group_2">
<path id="Vector" d="M134.933 145.32L163.059 146.548L161.755 176.356L133.629 175.128L131.467 224.656L94.4743 223.041L96.6365 173.513L1.09644 169.34L1.17215 146.641L102.972 0.419922L141.184 2.08573L134.933 145.32ZM38.1733 141.097L97.9406 143.705L101.886 53.3641L100.986 53.0191L97.6461 59.4552L38.1733 141.097Z" fill="#00B307"/>
</g>
<g id="Group_3" opacity="0.4">
<path id="Vector_2" opacity="0.4" d="M134.933 145.32L163.059 146.548L161.755 176.356L133.629 175.128L131.467 224.656L94.4743 223.041L96.6365 173.513L1.09644 169.34L1.17215 146.641L102.972 0.419922L141.184 2.08573L134.933 145.32ZM38.1733 141.097L97.9406 143.705L101.886 53.3641L100.986 53.0191L97.6461 59.4552L38.1733 141.097Z" fill="#1A1A1A"/>
</g>
<g id="Group_4">
<path id="Vector_3" d="M158.456 146.347L186.582 147.576L185.278 177.384L157.152 176.155L154.99 225.684L117.998 224.068L120.16 174.54L24.6196 170.367L24.6953 147.668L126.495 1.44727L164.707 3.11308L158.456 146.347ZM61.6881 142.124L121.455 144.732L125.401 54.3914L124.501 54.0465L121.161 60.4826L61.6881 142.124Z" fill="#00B307"/>
</g>
<g id="Group_5">
<g id="Group_6">
<path id="Vector_4" d="M25.1665 151.984C25.1749 152.009 24.8552 152.194 24.2578 152.497C23.6605 152.8 22.7855 153.22 21.7002 153.734C19.5296 154.752 16.5093 156.106 13.144 157.528C9.77876 158.95 6.69954 160.17 4.45322 161.019C3.33426 161.44 2.42564 161.777 1.78624 161.995C1.15525 162.214 0.793483 162.323 0.78507 162.29C0.776657 162.265 1.10477 162.096 1.72735 161.835C2.42564 161.541 3.30061 161.171 4.34384 160.733C6.64064 159.774 9.64415 158.521 12.9758 157.124C16.2906 155.711 19.2857 154.423 21.574 153.448C22.6089 153.01 23.4838 152.64 24.1821 152.345C24.8047 152.085 25.158 151.958 25.1665 151.984Z" fill="#00B307"/>
</g>
<g id="Group_7">
<path id="Vector_5" d="M38.863 126.793C38.8799 126.818 38.4256 127.054 37.5927 127.466C36.7597 127.87 35.5567 128.434 34.0591 129.123C31.064 130.495 26.8911 132.32 22.2554 134.281C17.6198 136.241 13.4048 137.957 10.3339 139.152C8.80275 139.749 7.54918 140.22 6.68263 140.532C5.81607 140.843 5.32811 141.003 5.31969 140.969C5.31128 140.944 5.774 140.725 6.62374 140.372C7.54077 139.985 8.75227 139.48 10.2162 138.857C13.3206 137.553 17.4767 135.803 22.0787 133.868C26.6723 131.917 30.8285 130.15 33.9245 128.837C35.3884 128.215 36.5999 127.702 37.5169 127.315C38.3751 126.944 38.8462 126.759 38.863 126.793Z" fill="#00B307"/>
</g>
<g id="Group_8">
<path id="Vector_6" d="M55.5802 104.323C55.5886 104.348 55.1175 104.592 54.251 104.996C53.3844 105.399 52.1224 105.972 50.5576 106.653C47.4279 108.024 43.0698 109.85 38.2407 111.81C33.4031 113.771 29.003 115.487 25.806 116.682C24.2075 117.279 22.9034 117.75 22.0032 118.061C21.103 118.373 20.5982 118.532 20.5814 118.499C20.573 118.474 21.0525 118.255 21.9443 117.901C22.895 117.514 24.1654 117.01 25.6966 116.387C28.9273 115.083 33.2769 113.333 38.0808 111.398C42.8763 109.446 47.2175 107.679 50.4398 106.367C51.971 105.744 53.233 105.231 54.1836 104.844C55.067 104.482 55.5634 104.297 55.5802 104.323Z" fill="#00B307"/>
</g>
<g id="Group_9">
<path id="Vector_7" d="M122.541 130.269C122.549 130.294 122.229 130.471 121.624 130.765C121.026 131.06 120.151 131.464 119.058 131.952C116.887 132.936 113.858 134.24 110.484 135.611C107.111 136.974 104.023 138.144 101.785 138.951C100.666 139.355 99.7493 139.675 99.1183 139.877C98.4873 140.087 98.1255 140.188 98.1171 140.154C98.1087 140.129 98.4452 139.969 99.0594 139.717C99.7577 139.431 100.641 139.078 101.676 138.657C103.981 137.74 106.993 136.528 110.325 135.199C113.648 133.836 116.651 132.608 118.94 131.666C119.983 131.245 120.858 130.892 121.556 130.606C122.179 130.362 122.524 130.244 122.541 130.269Z" fill="#00B307"/>
</g>
<g id="Group_10">
<path id="Vector_8" d="M119.815 176.492C119.823 176.517 119.512 176.694 118.931 176.988C118.351 177.282 117.501 177.686 116.45 178.174C114.346 179.159 111.41 180.463 108.137 181.826C104.865 183.189 101.878 184.358 99.6989 185.166C98.6136 185.569 97.7218 185.889 97.1077 186.099C96.4935 186.31 96.1486 186.411 96.1318 186.386C96.1233 186.36 96.443 186.2 97.0404 185.948C97.7218 185.662 98.5716 185.309 99.5812 184.888C101.819 183.963 104.738 182.759 107.969 181.43C111.183 180.067 114.094 178.839 116.323 177.897C117.325 177.476 118.174 177.123 118.864 176.837C119.47 176.584 119.806 176.466 119.815 176.492Z" fill="#00B307"/>
</g>
<g id="Group_11">
<path id="Vector_9" d="M119.428 192.695C119.436 192.72 119.125 192.897 118.544 193.191C117.964 193.486 117.114 193.889 116.063 194.377C113.959 195.362 111.023 196.666 107.75 198.029C104.478 199.392 101.491 200.561 99.312 201.369C98.2267 201.773 97.3349 202.092 96.7207 202.303C96.1065 202.513 95.7616 202.614 95.7448 202.589C95.7279 202.564 96.056 202.404 96.6534 202.151C97.3349 201.865 98.1846 201.512 99.1942 201.091C101.432 200.166 104.351 198.963 107.582 197.633C110.796 196.27 113.707 195.042 115.936 194.1C116.938 193.679 117.787 193.326 118.477 193.04C119.075 192.787 119.419 192.661 119.428 192.695Z" fill="#00B307"/>
</g>
<g id="Group_12">
<path id="Vector_10" d="M119.041 208.89C119.049 208.915 118.738 209.092 118.157 209.386C117.577 209.681 116.727 210.085 115.675 210.573C113.572 211.557 110.636 212.861 107.363 214.224C104.09 215.587 101.104 216.756 98.9248 217.564C97.8395 217.968 96.9477 218.288 96.3335 218.498C95.7193 218.708 95.3744 218.809 95.3576 218.784C95.3492 218.759 95.6689 218.599 96.2662 218.346C96.9477 218.06 97.7974 217.707 98.807 217.286C101.045 216.361 103.964 215.158 107.195 213.829C110.409 212.466 113.32 211.237 115.549 210.295C116.55 209.874 117.4 209.521 118.09 209.235C118.687 208.983 119.024 208.865 119.041 208.89Z" fill="#00B307"/>
</g>
<g id="Group_13">
<path id="Vector_11" d="M122.978 113.156C122.986 113.181 122.667 113.358 122.061 113.652C121.464 113.947 120.589 114.35 119.495 114.838C117.324 115.823 114.296 117.127 110.922 118.498C107.548 119.861 104.461 121.03 102.223 121.838C101.104 122.242 100.187 122.562 99.5558 122.764C98.9248 122.974 98.563 123.075 98.5546 123.041C98.5462 123.008 98.8827 122.856 99.4969 122.604C100.195 122.318 101.079 121.964 102.113 121.544C104.419 120.627 107.43 119.415 110.762 118.086C114.085 116.723 117.089 115.495 119.377 114.552C120.42 114.132 121.295 113.778 121.994 113.492C122.616 113.248 122.961 113.13 122.978 113.156Z" fill="#00B307"/>
</g>
<g id="Group_14">
<path id="Vector_12" d="M123.416 96.0444C123.424 96.0696 123.104 96.2463 122.499 96.5408C121.901 96.8352 121.026 97.239 119.932 97.727C117.762 98.7114 114.733 100.015 111.359 101.387C107.986 102.75 104.898 103.919 102.66 104.727C101.541 105.131 100.624 105.45 99.9933 105.652C99.3623 105.863 99.0005 105.964 98.9921 105.93C98.9837 105.905 99.3202 105.745 99.9344 105.492C100.633 105.206 101.516 104.853 102.551 104.432C104.856 103.515 107.868 102.304 111.2 100.975C114.523 99.6116 117.526 98.3832 119.815 97.441C120.858 97.0203 121.733 96.667 122.431 96.3809C123.054 96.1369 123.399 96.0191 123.416 96.0444Z" fill="#00B307"/>
</g>
<g id="Group_15">
<path id="Vector_13" d="M123.853 78.9314C123.861 78.9567 123.559 79.125 122.986 79.4026C122.414 79.6802 121.582 80.0672 120.547 80.5384C118.477 81.4722 115.6 82.7258 112.386 84.0298C109.172 85.3339 106.227 86.436 104.091 87.2016C103.022 87.5886 102.155 87.8831 101.55 88.085C100.944 88.2785 100.607 88.3795 100.599 88.3458C100.591 88.3206 100.91 88.1691 101.491 87.9252C102.164 87.6559 102.997 87.311 103.981 86.9156C106.185 86.0406 109.046 84.888 112.218 83.626C115.373 82.3304 118.233 81.1525 120.42 80.2523C121.405 79.8569 122.238 79.512 122.911 79.2427C123.508 79.0156 123.836 78.8978 123.853 78.9314Z" fill="#00B307"/>
</g>
<g id="Group_16">
<path id="Vector_14" d="M125.788 62.9381C125.83 63.0475 123.946 63.8552 121.573 64.7385C119.201 65.6135 117.249 66.2361 117.207 66.1267C117.165 66.0173 119.049 65.2097 121.422 64.3263C123.786 63.4429 125.746 62.8203 125.788 62.9381Z" fill="#00B307"/>
</g>
<g id="Group_17">
<path id="Vector_15" d="M72.2633 81.0336C72.2718 81.0589 71.8006 81.3028 70.9341 81.7067C70.0675 82.1105 68.8055 82.6826 67.2407 83.3641C64.111 84.7354 59.7529 86.5611 54.9238 88.5214C50.0862 90.4816 45.6861 92.1979 42.4891 93.3926C40.8906 93.9899 39.5866 94.4611 38.6863 94.7724C37.7861 95.0836 37.2813 95.2435 37.2645 95.2098C37.2561 95.1846 37.7356 94.9659 38.6274 94.6125C39.5781 94.2255 40.8485 93.7207 42.3797 93.0981C45.6104 91.7941 49.96 90.0441 54.7639 88.1091C59.5594 86.1573 63.9006 84.3905 67.1229 83.078C68.6541 82.4555 69.9161 81.9423 70.8668 81.5552C71.7586 81.1851 72.2549 81.0084 72.2633 81.0336Z" fill="#00B307"/>
</g>
<g id="Group_18">
<path id="Vector_16" d="M88.9553 57.7386C88.9637 57.7638 88.4925 58.0078 87.626 58.4117C86.7594 58.8155 85.4974 59.3876 83.9326 60.0691C80.8029 61.4404 76.4448 63.2661 71.6157 65.2264C66.7781 67.1866 62.378 68.9029 59.181 70.0976C57.5825 70.6949 56.2784 71.1661 55.3782 71.4773C54.478 71.7886 53.9732 71.9485 53.9564 71.9148C53.948 71.8896 54.4275 71.6708 55.3193 71.3175C56.27 70.9305 57.5404 70.4257 59.0716 69.8031C62.3023 68.4991 66.6519 66.7491 71.4558 64.8141C76.2513 62.8622 80.5925 61.0955 83.8148 59.783C85.346 59.1604 86.608 58.6472 87.5587 58.2602C88.442 57.8985 88.9384 57.7134 88.9553 57.7386Z" fill="#00B307"/>
</g>
<g id="Group_19">
<path id="Vector_17" d="M104.377 34.4492C104.385 34.4745 103.914 34.7184 103.047 35.1223C102.181 35.5261 100.919 36.0982 99.354 36.7797C96.2243 38.151 91.8662 39.9767 87.0371 41.9369C82.1995 43.8972 77.7994 45.6135 74.6024 46.8082C73.0039 47.4055 71.6998 47.8766 70.7996 48.1879C69.8994 48.4992 69.3946 48.6591 69.3778 48.6254C69.3694 48.6002 69.8489 48.3814 70.7407 48.0281C71.6914 47.6411 72.9618 47.1363 74.493 46.5137C77.7237 45.2097 82.0733 43.4597 86.8772 41.5247C91.6727 39.5728 96.0139 37.8061 99.2362 36.4936C100.767 35.871 102.029 35.3578 102.98 34.9708C103.872 34.6006 104.368 34.4156 104.377 34.4492Z" fill="#00B307"/>
</g>
<g id="Group_20">
<path id="Vector_18" d="M120.429 12.0531C120.437 12.0783 119.966 12.3223 119.1 12.7261C118.233 13.1299 116.971 13.702 115.406 14.3835C112.277 15.7549 107.918 17.5805 103.089 19.5408C98.2517 21.5011 93.8516 23.2174 90.6546 24.412C89.0561 25.0094 87.7521 25.4805 86.8519 25.7918C85.9517 26.1031 85.4469 26.2629 85.43 26.2293C85.4216 26.204 85.9012 25.9853 86.793 25.6319C87.7437 25.2449 89.0141 24.7401 90.5453 24.1176C93.7759 22.8135 98.1255 21.0636 102.929 19.1285C107.725 17.1767 112.066 15.4099 115.288 14.0975C116.82 13.4749 118.082 12.9617 119.032 12.5747C119.916 12.2129 120.412 12.0278 120.429 12.0531Z" fill="#00B307"/>
</g>
<g id="Group_21">
<path id="Vector_19" d="M163.016 46.2721C163.025 46.2805 162.857 46.474 162.529 46.8274C162.2 47.1807 161.712 47.7024 161.006 48.2997C159.634 49.5196 157.472 51.1349 154.469 52.5231C151.474 53.9029 147.612 54.9882 143.229 55.0891C141.041 55.1312 138.736 54.8956 136.422 54.3235C134.1 53.7767 131.812 52.8344 129.54 51.7575C125.014 49.5532 120.993 46.9536 117.064 45.1447C113.16 43.2938 109.307 42.3768 106.051 42.2674C102.778 42.1497 100.178 42.89 98.5379 43.6724C97.7218 44.0763 97.0992 44.4296 96.7122 44.7157C96.3168 44.9849 96.098 45.1195 96.0896 45.1111C96.0812 45.1027 96.2747 44.9428 96.6617 44.6484C97.0319 44.3371 97.6461 43.9585 98.4621 43.521C100.103 42.6797 102.744 41.8804 106.059 41.9562C109.366 42.0319 113.278 42.9237 117.24 44.7746C121.211 46.5834 125.25 49.1747 129.734 51.3621C131.98 52.4306 134.243 53.3644 136.523 53.9113C138.795 54.475 141.058 54.719 143.22 54.6853C147.536 54.6096 151.364 53.5747 154.334 52.2455C157.321 50.9162 159.491 49.3513 160.888 48.1819C161.603 47.6098 162.108 47.105 162.461 46.7769C162.815 46.432 163.008 46.2637 163.016 46.2721Z" fill="white"/>
</g>
<g id="Group_22">
<path id="Vector_20" d="M151.305 4.67631C151.322 4.70155 150.935 4.92029 150.237 5.29888C149.538 5.67748 148.495 6.17386 147.183 6.72913C145.87 7.29281 144.272 7.86491 142.471 8.41177C140.663 8.9418 138.643 9.42134 136.498 9.78311C134.353 10.1281 132.283 10.3047 130.398 10.3805C128.514 10.4309 126.814 10.3973 125.401 10.2795C123.979 10.1701 122.835 10.0355 122.053 9.89249C121.27 9.75787 120.841 9.67374 120.841 9.64009C120.849 9.60643 121.287 9.64009 122.069 9.72422C122.86 9.81677 124.004 9.9009 125.409 9.9682C126.823 10.0439 128.505 10.0523 130.373 9.97662C132.241 9.87566 134.285 9.69057 136.414 9.34563C138.542 8.99228 140.545 8.52114 142.345 8.01635C144.137 7.49473 145.736 6.95628 147.048 6.43466C148.369 5.92146 149.421 5.47556 150.144 5.13903C150.885 4.81933 151.288 4.65107 151.305 4.67631Z" fill="white"/>
</g>
<g id="Group_23">
<path id="Vector_21" d="M91.5718 98.1123C91.5466 98.1291 91.2857 97.8263 90.8146 97.2626C90.293 96.64 89.6199 95.8408 88.8207 94.8985C87.1212 92.9214 84.6898 90.246 81.7789 87.537C80.3234 86.1824 78.8427 85.0046 77.3619 84.138C75.8896 83.2715 74.4257 82.7499 73.1554 82.5059C70.5978 82.0011 68.9908 82.5816 68.9824 82.4806C68.9824 82.4638 69.075 82.4301 69.2601 82.3713C69.4451 82.3124 69.7228 82.2451 70.0846 82.1778C70.8081 82.0516 71.8934 81.9843 73.2058 82.203C74.5099 82.4133 76.0327 82.9181 77.5554 83.7931C79.0782 84.6512 80.601 85.8543 82.0649 87.2173C84.9927 89.9515 87.3989 92.669 89.0478 94.705C89.8723 95.723 90.5117 96.5727 90.9408 97.17C91.3783 97.7506 91.597 98.0955 91.5718 98.1123Z" fill="white"/>
</g>
<g id="Group_24">
<path id="Vector_22" d="M158.684 123.53C158.692 123.547 158.583 123.631 158.356 123.782C158.129 123.934 157.809 124.169 157.355 124.422C156.471 124.96 155.142 125.65 153.409 126.298C149.985 127.61 144.752 128.561 139.165 127.425C133.587 126.281 129.145 123.345 126.512 120.796C125.174 119.517 124.223 118.364 123.618 117.523C123.306 117.111 123.104 116.766 122.953 116.539C122.81 116.311 122.734 116.185 122.751 116.177C122.785 116.152 123.113 116.614 123.752 117.414C124.392 118.213 125.368 119.332 126.714 120.568C129.372 123.034 133.764 125.877 139.241 126.996C144.718 128.115 149.875 127.232 153.291 126.012C155.016 125.406 156.353 124.767 157.254 124.279C158.171 123.791 158.659 123.505 158.684 123.53Z" fill="white"/>
</g>
<g id="Group_25">
<path id="Vector_23" d="M183.191 176.802C183.191 176.802 183.099 176.676 182.947 176.415C182.787 176.138 182.569 175.751 182.283 175.254C181.744 174.203 180.76 172.764 179.405 170.989C179.044 170.56 178.665 170.114 178.261 169.634C178.059 169.399 177.857 169.155 177.647 168.911C177.411 168.684 177.176 168.448 176.932 168.212C176.444 167.733 175.939 167.236 175.418 166.723C174.854 166.252 174.257 165.764 173.651 165.251C171.169 163.282 168.098 161.314 164.413 159.757C160.737 158.218 156.446 157.065 151.751 156.821C147.065 156.552 142.009 157.275 137.087 159.177C132.165 161.112 127.412 164.039 122.381 166.866C119.865 168.28 117.257 169.659 114.481 170.778C111.713 171.906 108.76 172.772 105.689 173.084C102.618 173.437 99.5475 173.151 96.6113 172.537C93.6751 171.914 90.8903 170.879 88.257 169.685C82.9735 167.279 78.3463 164.107 74.0303 161.036C69.7059 157.965 65.6339 155.004 61.5704 152.631C57.5152 150.267 53.4853 148.45 49.5984 147.516C45.7115 146.591 42.0518 146.439 38.9053 146.809C35.7503 147.154 33.1254 148.054 31.1315 149.056C29.1123 150.04 27.8083 151.209 26.8997 151.958C26.4958 152.362 26.1761 152.682 25.9574 152.909C25.7386 153.119 25.6208 153.22 25.6208 153.22C25.6208 153.22 25.7134 153.102 25.9237 152.875C26.1425 152.64 26.4453 152.312 26.8408 151.891C27.7326 151.117 29.0282 149.914 31.0558 148.904C33.0497 147.869 35.6914 146.935 38.8716 146.565C42.0434 146.161 45.7368 146.296 49.6657 147.213C53.5947 148.139 57.6667 149.947 61.7471 152.312C65.8443 154.684 69.9331 157.645 74.2575 160.699C78.5818 163.753 83.1922 166.908 88.4337 169.289C91.0502 170.467 93.8013 171.502 96.7038 172.108C99.598 172.713 102.618 172.991 105.639 172.646C108.659 172.335 111.57 171.485 114.313 170.366C117.064 169.256 119.655 167.884 122.171 166.479C127.193 163.669 131.963 160.742 136.936 158.79C138.189 158.327 139.418 157.873 140.688 157.578C141.319 157.418 141.933 157.225 142.564 157.099C143.195 156.998 143.826 156.888 144.449 156.787C146.939 156.375 149.404 156.35 151.768 156.451C156.505 156.72 160.829 157.898 164.522 159.471C168.224 161.053 171.303 163.064 173.794 165.057C174.408 165.571 174.997 166.067 175.561 166.547C176.082 167.068 176.587 167.581 177.075 168.061C177.319 168.305 177.555 168.541 177.782 168.768C177.992 169.02 178.194 169.264 178.396 169.508C178.791 169.988 179.17 170.442 179.532 170.879C180.869 172.68 181.828 174.144 182.35 175.212C182.619 175.725 182.83 176.112 182.981 176.398C183.132 176.659 183.191 176.802 183.191 176.802Z" fill="white"/>
</g>
<g id="Group_26">
<path id="Vector_24" d="M157.767 211.944C157.767 211.961 157.624 211.995 157.338 212.054C157.001 212.121 156.597 212.197 156.092 212.289C155.554 212.399 154.889 212.508 154.115 212.575C153.341 212.651 152.458 212.786 151.474 212.802C150.977 212.828 150.464 212.845 149.934 212.87C149.396 212.887 148.84 212.861 148.26 212.853C147.099 212.861 145.87 212.744 144.575 212.643C141.992 212.357 139.165 211.852 136.271 211.027C133.385 210.169 130.735 209.075 128.396 207.931C127.244 207.317 126.141 206.762 125.174 206.131C124.686 205.82 124.198 205.55 123.752 205.247C123.315 204.945 122.894 204.642 122.49 204.364C121.674 203.817 120.993 203.237 120.387 202.749C119.764 202.269 119.268 201.823 118.872 201.445C118.502 201.1 118.199 200.814 117.955 200.578C117.745 200.376 117.644 200.267 117.653 200.258C117.661 200.25 117.787 200.334 118.014 200.519C118.275 200.738 118.595 200.999 118.99 201.327C119.403 201.689 119.916 202.118 120.547 202.572C121.169 203.035 121.851 203.598 122.675 204.12C123.079 204.398 123.508 204.675 123.946 204.978C124.392 205.273 124.88 205.542 125.367 205.836C126.343 206.45 127.437 206.989 128.581 207.586C130.903 208.705 133.537 209.782 136.397 210.623C139.258 211.44 142.059 211.953 144.617 212.256C145.904 212.365 147.124 212.5 148.268 212.508C148.84 212.516 149.396 212.558 149.926 212.55C150.456 212.533 150.969 212.525 151.457 212.508C152.433 212.508 153.316 212.399 154.09 212.348C154.864 212.298 155.529 212.214 156.067 212.138C156.572 212.079 156.984 212.02 157.321 211.978C157.607 211.936 157.758 211.927 157.767 211.944Z" fill="white"/>
</g>
</g>
</g>
</svg>
