<svg width="54" height="47" viewBox="0 0 54 47" fill="none" xmlns="http://www.w3.org/2000/svg">
<g id="Group">
<path id="Vector" d="M15.8137 23.6816C19.3808 26.6178 21.3411 31.4049 20.8447 36.0069C20.3483 40.6005 17.4206 44.866 13.3065 46.9777C10.2189 39.0609 9.03263 30.5384 15.8137 23.6816Z" fill="#00B307"/>
<g id="Group_2">
<path id="Vector_2" d="M27.5164 29.758C27.8445 35.7313 31.3359 41.4438 36.51 44.4473C41.6841 47.4508 48.3726 47.6696 53.7234 44.9942C47.8426 35.7061 39.8669 27.9407 27.5164 29.758Z" fill="#00B307"/>
<g id="Group_3">
<path id="Vector_3" d="M0.703576 0.496444C0.711989 0.488031 0.846592 0.631055 1.09057 0.917104C1.3598 1.23681 1.70474 1.65746 2.14222 2.17066C3.04243 3.27279 4.33806 4.86287 5.98705 6.78949C9.26818 10.6596 13.9038 15.9262 19.364 21.42C22.0983 24.1627 24.7821 26.6951 27.2808 28.933C29.7963 31.1541 32.1268 33.0807 34.1375 34.6119C36.1735 36.1179 37.8561 37.2957 39.0929 37.9856C40.3128 38.7091 41.0363 39.0036 41.0195 39.0541C41.0111 39.0709 40.8344 38.9952 40.4895 38.8522C40.1445 38.7007 39.6313 38.4988 39.0172 38.137C37.7468 37.4892 36.0305 36.345 33.9608 34.8643C31.908 33.3584 29.5607 31.4486 27.02 29.2359C24.5044 27.0064 21.8038 24.474 19.0611 21.7313C13.5925 16.2291 8.98213 10.9204 5.75989 6.99143C4.14456 5.03115 2.87417 3.41582 2.01603 2.28004C1.6122 1.74159 1.28408 1.31253 1.03169 0.976002C0.804533 0.673128 0.695163 0.504858 0.703576 0.496444Z" fill="#1A1A1A"/>
</g>
</g>
<g id="Group_4">
<path id="Vector_4" d="M15.1658 35.6475C15.0901 35.6306 15.3761 34.4612 15.6117 32.5514C15.8557 30.6416 15.9903 27.9746 15.6958 25.0553C15.3845 22.1359 14.7031 19.553 14.0721 17.7358C13.4411 15.9185 12.9279 14.8332 12.9952 14.7996C13.0204 14.7828 13.1719 15.0436 13.4243 15.5315C13.6851 16.0111 14.0048 16.7262 14.3581 17.6348C15.0733 19.4437 15.8136 22.0517 16.1333 25.0132C16.4362 27.9746 16.2427 30.6837 15.923 32.6019C15.7631 33.561 15.5949 34.335 15.4435 34.8566C15.2836 35.3783 15.191 35.6559 15.1658 35.6475Z" fill="#1A1A1A"/>
</g>
</g>
</svg>
