<svg width="48" height="51" viewBox="0 0 48 51" fill="none" xmlns="http://www.w3.org/2000/svg">
<g id="Group">
<g id="Group_2">
<path id="Vector" d="M25.3708 25.9828C23.6377 19.5551 25.2615 12.3114 29.5858 7.24662C33.9102 2.18188 40.8006 -0.577641 47.4218 0.120653C48.5912 6.48102 46.6141 13.0097 43.2573 18.5455C39.2947 25.0573 31.4199 27.8169 25.3708 25.9828Z" fill="#00B307"/>
<g id="Group_3">
<path id="Vector_2" d="M0.518487 50.8853C0.510074 50.8769 0.627895 50.717 0.871878 50.431C1.14951 50.1113 1.51126 49.7074 1.95716 49.1942C2.92468 48.1342 4.32966 46.6198 6.09643 44.7689C9.62156 41.0671 14.5517 36.0108 20.0371 30.4581C25.5225 24.9054 30.5199 19.9164 34.1544 16.3155C35.9549 14.5488 37.4188 13.1101 38.4788 12.0753C38.9668 11.6042 39.3622 11.2256 39.6735 10.9395C39.9511 10.6871 40.1025 10.5525 40.1109 10.5609C40.1194 10.5693 39.9932 10.7208 39.7408 10.9984C39.4548 11.3013 39.0761 11.6967 38.605 12.1931C37.5702 13.2531 36.1399 14.7254 34.3816 16.5343C30.7639 20.2108 25.817 25.2251 20.3568 30.7694C14.8966 36.3052 9.94969 41.3195 6.32361 44.9876C4.56525 46.7881 3.12661 48.252 2.08338 49.312C1.61224 49.8 1.22519 50.187 0.939146 50.4899C0.678337 50.7591 0.535313 50.8937 0.518487 50.8853Z" fill="#1A1A1A"/>
</g>
<g id="Group_4" opacity="0.3">
<path id="Vector_3" opacity="0.3" d="M25.3708 25.9828C23.6377 19.5551 25.2615 12.3114 29.5858 7.24662C33.9102 2.18188 40.8006 -0.577641 47.4218 0.120653C48.5912 6.48102 46.6141 13.0097 43.2573 18.5455C39.2947 25.0573 31.4199 27.8169 25.3708 25.9828Z" fill="#1A1A1A"/>
</g>
</g>
<g id="Group_5">
<path id="Vector_4" d="M13.8786 28.4816C10.2441 26.6139 7.6276 22.8784 7.1144 18.8233C6.60119 14.7681 8.19127 10.5026 11.2453 7.78516C14.619 9.88004 16.7643 13.4809 17.8917 17.2836C19.2126 21.7763 17.2102 26.4961 13.8786 28.4816Z" fill="#00B307"/>
<g id="Group_6" opacity="0.3">
<path id="Vector_5" opacity="0.3" d="M13.8786 28.4816C10.2441 26.6139 7.6276 22.8784 7.1144 18.8233C6.60119 14.7681 8.19127 10.5026 11.2453 7.78516C14.619 9.88004 16.7643 13.4809 17.8917 17.2836C19.2126 21.7763 17.2102 26.4961 13.8786 28.4816Z" fill="#1A1A1A"/>
</g>
<g id="Group_7">
<path id="Vector_6" d="M15.1911 35.6508C15.1658 35.6592 15.0733 35.3816 14.9303 34.8852C14.7872 34.3804 14.6274 33.6485 14.4507 32.7398C14.0973 30.9142 13.7272 28.3818 13.3907 25.5718C13.0542 22.7618 12.8186 20.2126 12.684 18.3701C12.5409 16.5192 12.4989 15.375 12.5577 15.375C12.6166 15.3666 12.7681 16.5024 12.9868 18.3449C13.214 20.3052 13.5 22.787 13.8197 25.5297C14.1562 28.3313 14.476 30.8637 14.7536 32.6978C15.0312 34.515 15.2584 35.634 15.1911 35.6508Z" fill="#1A1A1A"/>
</g>
</g>
</g>
</svg>
