<svg width="10" height="24" viewBox="0 0 10 24" fill="none" xmlns="http://www.w3.org/2000/svg">
<g id="Group">
<path id="Vector" d="M2.4478 17.3892C0.369741 14.6381 -0.244441 10.8521 0.849272 7.58782C1.94299 4.3235 4.71095 1.66493 8.02574 0.722656C9.81775 3.54948 10.129 7.05779 9.59058 10.3642C8.95118 14.2511 5.7037 17.0947 2.4478 17.3892Z" fill="#00B307"/>
<g id="Group_2">
<path id="Vector_2" d="M0.832529 23.3047C0.773637 23.2963 0.916674 22.3287 1.3205 20.8144C1.71592 19.3 2.35533 17.2388 3.12933 14.984C3.90334 12.7293 4.66051 10.7101 5.2326 9.26308C5.80469 7.81601 6.20008 6.93263 6.25898 6.94945C6.31787 6.97469 6.02341 7.89172 5.52704 9.37244C4.97178 10.9794 4.29874 12.948 3.54157 15.1355C2.76756 17.3818 2.08612 19.4262 1.61499 20.9069C1.13544 22.3876 0.89142 23.3215 0.832529 23.3047Z" fill="#1A1A1A"/>
</g>
</g>
</svg>
