<svg width="40" height="16" viewBox="0 0 40 16" fill="none" xmlns="http://www.w3.org/2000/svg">
<g id="Group">
<path id="Vector" d="M6.3418 12.9898C8.90781 6.94068 14.6456 2.34709 21.1069 1.16924C27.5682 -0.00860578 34.5596 2.27136 39.0859 7.02481C29.5453 14.4284 18.4147 19.4763 6.3418 12.9898Z" fill="#00B307"/>
<g id="Group_2" opacity="0.3">
<path id="Vector_2" opacity="0.3" d="M6.3418 12.9898C8.90781 6.94068 14.6456 2.34709 21.1069 1.16924C27.5682 -0.00860578 34.5596 2.27136 39.0859 7.02481C29.5453 14.4284 18.4147 19.4763 6.3418 12.9898Z" fill="#1A1A1A"/>
</g>
<g id="Group_3">
<path id="Vector_3" d="M0.948986 15.9509C0.932159 15.9257 1.20138 15.7153 1.70617 15.362C2.21096 15.0002 2.95973 14.5207 3.91042 13.9654C5.81179 12.8465 8.57132 11.5003 11.7767 10.4403C14.9822 9.38864 18.0025 8.83337 20.1983 8.5978C21.2921 8.48002 22.1838 8.42112 22.8064 8.41271C23.4206 8.39588 23.7655 8.4043 23.7655 8.43795C23.7655 8.51367 22.411 8.5978 20.2404 8.90908C18.0698 9.22037 15.1 9.81771 11.9198 10.8609C8.74801 11.9126 5.99689 13.1998 4.07027 14.243C2.13524 15.2694 0.991052 16.0098 0.948986 15.9509Z" fill="#1A1A1A"/>
</g>
</g>
</svg>
