<svg width="68" height="66" viewBox="0 0 68 66" fill="none" xmlns="http://www.w3.org/2000/svg">
<g id="Speech Bubble">
<g id="Group">
<g id="Group_2">
<g id="Group_3">
<g id="Group_4">
<path id="Vector" d="M0.748047 62.0237L7.51225 49.833C4.42461 44.9197 2.60737 39.1231 2.54848 32.8973C2.38022 14.9941 16.7499 0.338296 34.6616 0.161619C52.5648 -0.00664464 67.2206 14.3631 67.3973 32.2747C67.5655 50.178 53.1958 64.8337 35.2841 65.0104C27.8048 65.0861 20.906 62.6127 15.3786 58.4145L15.387 58.4313L0.748047 62.0237Z" fill="white"/>
<g id="Group_5">
<path id="Vector_2" d="M0.748047 62.0226C1.50523 61.8291 6.08201 60.668 15.3533 58.3208L15.2944 58.4975L15.286 58.4806L14.7728 57.8244L15.4374 58.3208C17.2968 59.7174 19.5179 61.0803 22.1175 62.2077C24.7256 63.3182 27.6954 64.21 30.9682 64.6054C32.6003 64.7905 34.3082 64.8999 36.0582 64.7989C36.9331 64.74 37.8249 64.7064 38.7167 64.6222C39.6085 64.4792 40.5087 64.3278 41.4257 64.1764C45.0518 63.4108 48.7452 61.9889 52.1862 59.8015C55.6188 57.6225 58.7905 54.6779 61.3229 51.077C63.8469 47.4846 65.7399 43.2359 66.6064 38.6423C67.4561 34.0487 67.3299 29.1355 66.0764 24.3988C64.8144 19.679 62.5092 15.0686 59.085 11.2995L57.7642 9.86927C57.3267 9.38972 56.8135 8.9943 56.3423 8.55681C55.8544 8.14456 55.4085 7.67343 54.8784 7.30325L53.3304 6.16747C52.8256 5.77205 52.2787 5.45235 51.7319 5.13265L50.0998 4.16513C49.5277 3.89591 48.9555 3.62669 48.3919 3.35747C47.8198 3.09666 47.2645 2.79378 46.6672 2.60869C41.9979 0.808272 37.0341 0.143629 32.289 0.530636C27.544 0.909229 23.0177 2.31423 19.1392 4.53531C15.2439 6.73956 11.9712 9.67576 9.44727 12.9401C6.9149 16.2044 5.13974 19.8052 4.04602 23.3892C2.96072 26.9817 2.68307 30.5489 2.71673 33.8468C2.94388 40.4932 5.19022 45.945 7.59638 49.7898L7.63002 49.8403L7.59638 49.8908C3.23836 57.6141 1.11823 61.3748 0.748047 62.0226C1.1014 61.3663 3.17104 57.5804 7.41969 49.7814V49.8908C4.97146 46.0375 2.67466 40.5521 2.42226 33.8468C2.38019 30.5152 2.64102 26.9144 3.72632 23.2799C4.82003 19.6622 6.60361 16.0193 9.1528 12.7045C11.6936 9.38972 15.0084 6.41986 18.9458 4.18196C22.8663 1.91881 27.4599 0.496983 32.2554 0.109977C37.0593 -0.285443 42.0904 0.3792 46.827 2.20486C47.4328 2.38995 47.9964 2.70124 48.5769 2.96205C49.149 3.23127 49.7296 3.5089 50.3101 3.78654L51.9675 4.77088C52.5227 5.09899 53.0864 5.41869 53.5912 5.82253L55.156 6.97513C55.6945 7.34531 56.1404 7.82486 56.6368 8.24552C57.1163 8.69142 57.638 9.08684 58.0754 9.5748L59.4131 11.0219C62.8877 14.8499 65.2266 19.5108 66.497 24.3063C67.759 29.1102 67.8852 34.0908 67.0187 38.7433C66.1437 43.4042 64.2171 47.7033 61.651 51.3294C59.085 54.9723 55.8712 57.9422 52.3881 60.138C48.9051 62.3423 45.1612 63.7725 41.4931 64.5381C40.5676 64.6896 39.659 64.8326 38.7588 64.9756C37.8501 65.0597 36.9499 65.0934 36.0665 65.1523C34.2998 65.2532 32.5751 65.1355 30.9261 64.9419C27.6197 64.5381 24.6247 63.6211 22.0082 62.4853C19.3917 61.3327 17.1622 59.9445 15.3029 58.5227L15.4543 58.3713L15.4627 58.3881L15.5637 58.5227L15.3954 58.5648C6.10724 60.7522 1.50523 61.8459 0.748047 62.0226Z" fill="#1A1A1A"/>
</g>
</g>
</g>
</g>
<g id="Group_6">
<g id="Group_7">
<path id="Vector_3" d="M25.9793 27.0315L30.1943 26.9894C30.1943 26.9894 30.1607 23.4475 33.8372 23.3465C35.747 23.296 36.7482 24.5412 37.1604 25.4919C37.64 26.6024 37.5053 27.8728 36.8912 28.9076C36.1845 30.0939 34.628 31.1792 31.7844 30.708L31.8769 40.2233L36.0499 40.1813L35.9994 34.6117C35.9994 34.6117 41.8381 33.0469 41.7708 26.594C41.7119 20.4271 36.1677 19.0474 33.7951 19.0726C31.9947 19.0978 25.8279 19.5942 25.9793 27.0315Z" fill="#00B307"/>
<path id="Vector_4" d="M36.144 42.1508L31.9121 42.1914L31.9501 46.1456L36.1819 46.105L36.144 42.1508Z" fill="#00B307"/>
</g>
</g>
</g>
</g>
</svg>
